<svg xmlns="http://www.w3.org/2000/svg" width="23.428" height="13.667" viewBox="0 106.662 23.428 13.667"><g data-name="CompositeLayer"><g data-name="Group 13968"><g data-name="Group 13967"><path d="M11.714 109.59a3.909 3.909 0 0 0-3.904 3.905 3.909 3.909 0 0 0 3.904 3.905 3.909 3.909 0 0 0 3.905-3.905 3.909 3.909 0 0 0-3.905-3.904Zm0 6.834a2.932 2.932 0 0 1-2.928-2.929 2.932 2.932 0 0 1 2.928-2.928 2.932 2.932 0 0 1 2.929 2.928 2.932 2.932 0 0 1-2.929 2.929Z" fill-rule="evenodd" data-name="Path 17950"/></g></g><g data-name="Group 13966"><g data-name="Group 13965"><path d="M23.342 113.218c-.185-.268-4.619-6.556-11.628-6.556-6.014 0-11.373 6.252-11.599 6.518a.49.49 0 0 0 0 .63c.226.267 5.585 6.519 11.6 6.519 6.014 0 11.373-6.252 11.598-6.518a.488.488 0 0 0 .029-.593Zm-11.628 6.135c-4.821 0-9.405-4.598-10.57-5.858 1.163-1.26 5.742-5.857 10.57-5.857 5.642 0 9.624 4.591 10.596 5.831-1.123 1.22-5.733 5.884-10.596 5.884Z" fill-rule="evenodd" data-name="Path 17949"/></g></g></g></svg>