<svg xmlns="http://www.w3.org/2000/svg" width="23.331" height="21.98"><path d="M17.255 0c-2.588 0-4.725 2.47-5.59 3.636C10.801 2.47 8.664 0 6.075 0 2.726 0 0 3.166 0 7.056c0 2.123.82 4.101 2.255 5.455.02.037.046.071.076.102l8.991 9.222a.478.478 0 0 0 .687 0l9.29-9.546.096-.095a4.05 4.05 0 0 0 .235-.244.485.485 0 0 0 .086-.12c1.042-1.31 1.615-3.002 1.615-4.774C23.33 3.166 20.605 0 17.255 0Zm3.652 11.269a.464.464 0 0 0-.036.05c-.046.054-.095.101-.145.15l-9.061 9.306-8.536-8.755a.5.5 0 0 0-.113-.15C1.716 10.706.972 8.95.972 7.057.972 3.716 3.262 1 6.076 1c2.782 0 5.157 3.73 5.18 3.768.18.285.639.285.818 0 .024-.038 2.398-3.768 5.181-3.768 2.814 0 5.104 2.717 5.104 6.057 0 1.574-.516 3.07-1.452 4.213Z" fill-rule="evenodd" data-name="Path 2"/></svg>