<svg xmlns="http://www.w3.org/2000/svg" width="18.333" height="18.333"><path d="m18.177 17.423-4.165-4.165a7.933 7.933 0 0 0 1.983-5.26 7.945 7.945 0 0 0-2.342-5.655A7.945 7.945 0 0 0 7.998 0a7.945 7.945 0 0 0-5.655 2.343A7.945 7.945 0 0 0 0 7.998c0 2.136.832 4.144 2.343 5.655a7.945 7.945 0 0 0 5.655 2.342 7.933 7.933 0 0 0 5.26-1.984l4.165 4.166a.531.531 0 0 0 .754 0 .533.533 0 0 0 0-.754ZM3.097 12.9a6.887 6.887 0 0 1-2.03-4.901c0-1.852.72-3.592 2.03-4.901a6.887 6.887 0 0 1 4.9-2.03c1.852 0 3.593.72 4.902 2.03a6.887 6.887 0 0 1 2.03 4.9A6.887 6.887 0 0 1 12.9 12.9a6.887 6.887 0 0 1-4.901 2.03 6.887 6.887 0 0 1-4.902-2.03Z" fill-rule="evenodd" data-name="Path 3"/></svg>