<svg xmlns="http://www.w3.org/2000/svg" width="17" height="21.647" viewBox="1840 86 17 21.647"><path d="M1856.634 93.046h-4.469v-3.264c0-2.089-1.64-3.782-3.665-3.782-2.024 0-3.665 1.693-3.665 3.782v3.264h-4.468a.373.373 0 0 0-.367.378v13.845c0 .209.164.378.367.378h16.267c.202 0 .366-.169.366-.378V93.424a.373.373 0 0 0-.366-.378Zm-11.066-3.264c0-1.67 1.313-3.026 2.932-3.026 1.62 0 2.932 1.355 2.932 3.026v3.264h-5.864v-3.264Zm10.699 17.109h-15.534V93.802h4.102v1.892c0 .208.164.378.366.378.203 0 .367-.17.367-.378v-1.892h5.864v1.892c0 .208.164.378.367.378.202 0 .366-.17.366-.378v-1.892h4.102v13.089Z" fill-rule="evenodd" data-name="shopping-bag"/></svg>