<svg xmlns="http://www.w3.org/2000/svg" width="19.258" height="20.147" viewBox="1739.673 87 19.258 20.147"><g data-name="user (5)"><g data-name="Group 4968"><g data-name="Group 4967"><path d="M1749.303 97.1c-5.31 0-9.63 4.32-9.63 9.629a.419.419 0 0 0 .838 0c0-4.848 3.944-8.792 8.792-8.792s8.791 3.944 8.791 8.792a.419.419 0 0 0 .838 0c0-5.31-4.32-9.63-9.63-9.63Z" fill-rule="evenodd" data-name="Path 10"/></g></g><g data-name="Group 4970"><g data-name="Group 4969"><path d="M1749.303 87a4.61 4.61 0 0 0-4.606 4.605 4.61 4.61 0 0 0 4.606 4.605 4.61 4.61 0 0 0 4.605-4.605 4.61 4.61 0 0 0-4.605-4.605Zm0 8.373a3.772 3.772 0 0 1-3.768-3.768 3.772 3.772 0 0 1 3.768-3.768 3.772 3.772 0 0 1 3.767 3.768 3.772 3.772 0 0 1-3.767 3.768Z" fill-rule="evenodd" data-name="Path 11"/></g></g></g></svg>